<svg width="1140" height="88" viewBox="0 0 1140 88" fill="none" xmlns="http://www.w3.org/2000/svg">
<rect x="100" y="38" width="235" height="10" rx="5" fill="#7D9596"/>
<rect x="335" y="38" width="235" height="10" rx="5" fill="#7D9596"/>
<rect x="570" y="38" width="235" height="10" rx="5" fill="#7D9596"/>
<rect x="805" y="38" width="235" height="10" rx="5" fill="#7D9596"/>
<path fill-rule="evenodd" clip-rule="evenodd" d="M96.9489 8.76987C103.063 10.29 106.008 17.3509 111.565 20.3426C117.406 23.4872 126.255 21.137 130.072 26.6018C133.814 31.9598 131.274 39.6414 129.438 45.9324C127.877 51.2839 123.052 54.7263 120.434 59.6381C117.712 64.7452 118.369 71.9069 113.755 75.3569C109.147 78.803 102.586 78.2493 96.9489 77.1985C91.7899 76.2368 87.8999 72.3805 83.3768 69.6944C78.8911 67.0304 71.9461 66.449 70.3954 61.4291C68.7441 56.0841 76.4479 51.5164 76.0361 45.9324C75.5688 39.5953 67.7351 35.3906 68.0069 29.0418C68.2921 22.3786 72.0709 15.6695 77.4941 11.8709C82.9838 8.02575 90.4634 7.15725 96.9489 8.76987Z" fill="#415050"/>
<path d="M94.56 53.264C93.68 53.264 92.856 53.128 92.088 52.856C91.336 52.568 90.672 52.104 90.096 51.464C89.536 50.808 89.096 49.92 88.776 48.8C88.472 47.68 88.32 46.28 88.32 44.6V44.12C88.32 42.568 88.472 41.272 88.776 40.232C89.096 39.176 89.536 38.336 90.096 37.712C90.672 37.072 91.336 36.616 92.088 36.344C92.856 36.072 93.68 35.936 94.56 35.936C95.44 35.936 96.256 36.072 97.008 36.344C97.776 36.616 98.44 37.072 99 37.712C99.576 38.336 100.016 39.176 100.32 40.232C100.64 41.272 100.8 42.568 100.8 44.12V44.6C100.8 46.28 100.64 47.68 100.32 48.8C100.016 49.92 99.576 50.808 99 51.464C98.44 52.104 97.776 52.568 97.008 52.856C96.256 53.128 95.44 53.264 94.56 53.264ZM94.56 50.768C95.008 50.768 95.432 50.68 95.832 50.504C96.232 50.328 96.584 50.016 96.888 49.568C97.208 49.104 97.456 48.472 97.632 47.672C97.824 46.872 97.92 45.848 97.92 44.6V44.12C97.92 42.616 97.76 41.456 97.44 40.64C97.136 39.808 96.728 39.232 96.216 38.912C95.704 38.592 95.152 38.432 94.56 38.432C93.968 38.432 93.416 38.592 92.904 38.912C92.392 39.232 91.976 39.808 91.656 40.64C91.352 41.456 91.2 42.616 91.2 44.12V44.6C91.2 45.848 91.288 46.872 91.464 47.672C91.656 48.472 91.904 49.104 92.208 49.568C92.528 50.016 92.888 50.328 93.288 50.504C93.688 50.68 94.112 50.768 94.56 50.768ZM103.317 53V50.504H107.277V39.248L103.317 42.056V39.08L107.373 36.2H110.157V50.504H113.397V53H103.317Z" fill="#F1F1F1"/>
<g filter="url(#filter0_d_595_370)">
<path d="M302.704 52.757C300.536 29.1875 315.788 10.5 341.333 10.5C356.196 10.5 367.5 18.9024 367.5 36.965C367.5 57.29 342.9 72.8178 329.05 75.0835C314.949 77.39 304.304 70.1408 302.704 52.757Z" fill="#415050"/>
</g>
<path d="M327.923 52.764C327.043 52.764 326.219 52.628 325.451 52.356C324.699 52.068 324.035 51.604 323.459 50.964C322.899 50.308 322.459 49.42 322.139 48.3C321.835 47.18 321.683 45.78 321.683 44.1V43.62C321.683 42.068 321.835 40.772 322.139 39.732C322.459 38.676 322.899 37.836 323.459 37.212C324.035 36.572 324.699 36.116 325.451 35.844C326.219 35.572 327.043 35.436 327.923 35.436C328.803 35.436 329.619 35.572 330.371 35.844C331.139 36.116 331.803 36.572 332.363 37.212C332.939 37.836 333.379 38.676 333.683 39.732C334.003 40.772 334.163 42.068 334.163 43.62V44.1C334.163 45.78 334.003 47.18 333.683 48.3C333.379 49.42 332.939 50.308 332.363 50.964C331.803 51.604 331.139 52.068 330.371 52.356C329.619 52.628 328.803 52.764 327.923 52.764ZM327.923 50.268C328.371 50.268 328.795 50.18 329.195 50.004C329.595 49.828 329.947 49.516 330.251 49.068C330.571 48.604 330.819 47.972 330.995 47.172C331.187 46.372 331.283 45.348 331.283 44.1V43.62C331.283 42.116 331.123 40.956 330.803 40.14C330.499 39.308 330.091 38.732 329.579 38.412C329.067 38.092 328.515 37.932 327.923 37.932C327.331 37.932 326.779 38.092 326.267 38.412C325.755 38.732 325.339 39.308 325.019 40.14C324.715 40.956 324.563 42.116 324.563 43.62V44.1C324.563 45.348 324.651 46.372 324.827 47.172C325.019 47.972 325.267 48.604 325.571 49.068C325.891 49.516 326.251 49.828 326.651 50.004C327.051 50.18 327.475 50.268 327.923 50.268ZM336.32 52.5V50.244L342.584 44.82C343.272 44.212 343.824 43.692 344.24 43.26C344.656 42.812 344.96 42.396 345.152 42.012C345.344 41.612 345.44 41.188 345.44 40.74C345.44 39.924 345.192 39.26 344.696 38.748C344.216 38.236 343.544 37.98 342.68 37.98C341.656 37.98 340.856 38.26 340.28 38.82C339.72 39.364 339.44 40.204 339.44 41.34H336.56C336.56 40.156 336.808 39.124 337.304 38.244C337.816 37.348 338.528 36.66 339.44 36.18C340.352 35.684 341.432 35.436 342.68 35.436C343.896 35.436 344.92 35.668 345.752 36.132C346.6 36.58 347.24 37.204 347.672 38.004C348.104 38.804 348.32 39.716 348.32 40.74C348.32 41.492 348.16 42.204 347.84 42.876C347.52 43.532 347.08 44.164 346.52 44.772C345.976 45.364 345.336 45.948 344.6 46.524L340.328 50.004H348.56V52.5H336.32Z" fill="#F1F1F1"/>
<g filter="url(#filter1_d_595_370)">
<path d="M558.809 12.576C559.956 10.5908 562.494 9.91062 564.479 11.0568L600.424 31.8095C602.409 32.9556 603.089 35.4941 601.943 37.4792L581.191 73.424C580.044 75.4092 577.506 76.0894 575.521 74.9432L539.576 54.1905C537.591 53.0444 536.911 50.5059 538.057 48.5208L558.809 12.576Z" fill="#415050"/>
</g>
<path d="M562.281 51.7642C561.401 51.7642 560.577 51.6282 559.809 51.3562C559.057 51.0682 558.393 50.6042 557.817 49.9642C557.257 49.3082 556.817 48.4202 556.497 47.3002C556.193 46.1802 556.041 44.7802 556.041 43.1002V42.6202C556.041 41.0682 556.193 39.7722 556.497 38.7322C556.817 37.6762 557.257 36.8362 557.817 36.2122C558.393 35.5722 559.057 35.1162 559.809 34.8442C560.577 34.5722 561.401 34.4362 562.281 34.4362C563.161 34.4362 563.977 34.5722 564.729 34.8442C565.497 35.1162 566.161 35.5722 566.721 36.2122C567.297 36.8362 567.737 37.6762 568.041 38.7322C568.361 39.7722 568.521 41.0682 568.521 42.6202V43.1002C568.521 44.7802 568.361 46.1802 568.041 47.3002C567.737 48.4202 567.297 49.3082 566.721 49.9642C566.161 50.6042 565.497 51.0682 564.729 51.3562C563.977 51.6282 563.161 51.7642 562.281 51.7642ZM562.281 49.2682C562.729 49.2682 563.153 49.1802 563.553 49.0042C563.953 48.8282 564.305 48.5162 564.609 48.0682C564.929 47.6042 565.177 46.9722 565.353 46.1722C565.545 45.3722 565.641 44.3482 565.641 43.1002V42.6202C565.641 41.1162 565.481 39.9562 565.161 39.1402C564.857 38.3082 564.449 37.7322 563.937 37.4122C563.425 37.0922 562.873 36.9322 562.281 36.9322C561.689 36.9322 561.137 37.0922 560.625 37.4122C560.113 37.7322 559.697 38.3082 559.377 39.1402C559.073 39.9562 558.921 41.1162 558.921 42.6202V43.1002C558.921 44.3482 559.009 45.3722 559.185 46.1722C559.377 46.9722 559.625 47.6042 559.929 48.0682C560.249 48.5162 560.609 48.8282 561.009 49.0042C561.409 49.1802 561.833 49.2682 562.281 49.2682ZM576.799 51.7642C575.503 51.7642 574.407 51.5482 573.511 51.1162C572.631 50.6842 571.959 50.0922 571.495 49.3402C571.031 48.5722 570.799 47.6922 570.799 46.7002H573.679C573.679 47.5002 573.927 48.1242 574.423 48.5722C574.935 49.0042 575.727 49.2202 576.799 49.2202C577.839 49.2202 578.615 49.0042 579.127 48.5722C579.655 48.1242 579.919 47.5002 579.919 46.7002C579.919 45.8842 579.679 45.2442 579.199 44.7802C578.719 44.3002 577.919 44.0602 576.799 44.0602H575.119V41.6602H576.799C577.759 41.6602 578.479 41.4602 578.959 41.0602C579.439 40.6442 579.679 40.0522 579.679 39.2842C579.679 38.5162 579.447 37.9402 578.983 37.5562C578.535 37.1722 577.807 36.9802 576.799 36.9802C575.807 36.9802 575.071 37.1802 574.591 37.5802C574.127 37.9802 573.895 38.5402 573.895 39.2602H571.015C571.015 38.2842 571.231 37.4362 571.663 36.7162C572.111 35.9962 572.767 35.4362 573.631 35.0362C574.495 34.6362 575.551 34.4362 576.799 34.4362C578.063 34.4362 579.119 34.6442 579.967 35.0602C580.815 35.4602 581.455 36.0042 581.887 36.6922C582.335 37.3642 582.559 38.1162 582.559 38.9482C582.559 39.9082 582.303 40.7162 581.791 41.3722C581.279 42.0122 580.575 42.4682 579.679 42.7402C580.655 43.0282 581.415 43.5162 581.959 44.2042C582.519 44.8762 582.799 45.7882 582.799 46.9402C582.799 47.8362 582.567 48.6522 582.103 49.3882C581.655 50.1242 580.983 50.7082 580.087 51.1402C579.207 51.5562 578.111 51.7642 576.799 51.7642Z" fill="#F1F1F1"/>
<g filter="url(#filter2_d_595_370)">
<path d="M772.663 30.2458C771.583 23.7501 775.974 17.6089 782.47 16.529L817.754 10.6633C824.25 9.58341 830.391 13.9738 831.471 20.4695L837.337 55.7542C838.417 62.2499 834.026 68.3911 827.53 69.471L792.246 75.3367C785.75 76.4166 779.609 72.0262 778.529 65.5305L772.663 30.2458Z" fill="#415050"/>
</g>
<path d="M797.619 52.764C796.739 52.764 795.915 52.628 795.147 52.356C794.395 52.068 793.731 51.604 793.155 50.964C792.595 50.308 792.155 49.42 791.835 48.3C791.531 47.18 791.379 45.78 791.379 44.1V43.62C791.379 42.068 791.531 40.772 791.835 39.732C792.155 38.676 792.595 37.836 793.155 37.212C793.731 36.572 794.395 36.116 795.147 35.844C795.915 35.572 796.739 35.436 797.619 35.436C798.499 35.436 799.315 35.572 800.067 35.844C800.835 36.116 801.499 36.572 802.059 37.212C802.635 37.836 803.075 38.676 803.379 39.732C803.699 40.772 803.859 42.068 803.859 43.62V44.1C803.859 45.78 803.699 47.18 803.379 48.3C803.075 49.42 802.635 50.308 802.059 50.964C801.499 51.604 800.835 52.068 800.067 52.356C799.315 52.628 798.499 52.764 797.619 52.764ZM797.619 50.268C798.067 50.268 798.491 50.18 798.891 50.004C799.291 49.828 799.643 49.516 799.947 49.068C800.267 48.604 800.515 47.972 800.691 47.172C800.883 46.372 800.979 45.348 800.979 44.1V43.62C800.979 42.116 800.819 40.956 800.499 40.14C800.195 39.308 799.787 38.732 799.275 38.412C798.763 38.092 798.211 37.932 797.619 37.932C797.027 37.932 796.475 38.092 795.963 38.412C795.451 38.732 795.035 39.308 794.715 40.14C794.411 40.956 794.259 42.116 794.259 43.62V44.1C794.259 45.348 794.347 46.372 794.523 47.172C794.715 47.972 794.963 48.604 795.267 49.068C795.587 49.516 795.947 49.828 796.347 50.004C796.747 50.18 797.171 50.268 797.619 50.268ZM813.936 52.5V48.708H805.656V46.572L813.816 35.7H816.816V46.212H818.856V48.708H816.816V52.5H813.936ZM808.536 46.212H813.936V39.012L808.536 46.212Z" fill="#F1F1F1"/>
<g filter="url(#filter3_d_595_370)">
<circle cx="1040" cy="43" r="32.5" fill="#415050"/>
</g>
<path d="M1032.92 52.764C1032.04 52.764 1031.22 52.628 1030.45 52.356C1029.7 52.068 1029.04 51.604 1028.46 50.964C1027.9 50.308 1027.46 49.42 1027.14 48.3C1026.84 47.18 1026.68 45.78 1026.68 44.1V43.62C1026.68 42.068 1026.84 40.772 1027.14 39.732C1027.46 38.676 1027.9 37.836 1028.46 37.212C1029.04 36.572 1029.7 36.116 1030.45 35.844C1031.22 35.572 1032.04 35.436 1032.92 35.436C1033.8 35.436 1034.62 35.572 1035.37 35.844C1036.14 36.116 1036.8 36.572 1037.36 37.212C1037.94 37.836 1038.38 38.676 1038.68 39.732C1039 40.772 1039.16 42.068 1039.16 43.62V44.1C1039.16 45.78 1039 47.18 1038.68 48.3C1038.38 49.42 1037.94 50.308 1037.36 50.964C1036.8 51.604 1036.14 52.068 1035.37 52.356C1034.62 52.628 1033.8 52.764 1032.92 52.764ZM1032.92 50.268C1033.37 50.268 1033.8 50.18 1034.2 50.004C1034.6 49.828 1034.95 49.516 1035.25 49.068C1035.57 48.604 1035.82 47.972 1036 47.172C1036.19 46.372 1036.28 45.348 1036.28 44.1V43.62C1036.28 42.116 1036.12 40.956 1035.8 40.14C1035.5 39.308 1035.09 38.732 1034.58 38.412C1034.07 38.092 1033.52 37.932 1032.92 37.932C1032.33 37.932 1031.78 38.092 1031.27 38.412C1030.76 38.732 1030.34 39.308 1030.02 40.14C1029.72 40.956 1029.56 42.116 1029.56 43.62V44.1C1029.56 45.348 1029.65 46.372 1029.83 47.172C1030.02 47.972 1030.27 48.604 1030.57 49.068C1030.89 49.516 1031.25 49.828 1031.65 50.004C1032.05 50.18 1032.48 50.268 1032.92 50.268ZM1047.56 52.764C1046.57 52.764 1045.71 52.636 1044.99 52.38C1044.29 52.124 1043.7 51.78 1043.24 51.348C1042.78 50.916 1042.42 50.428 1042.18 49.884C1041.96 49.324 1041.83 48.756 1041.8 48.18H1044.68C1044.76 48.756 1045.04 49.244 1045.52 49.644C1046.02 50.028 1046.7 50.22 1047.56 50.22C1048.54 50.22 1049.3 49.932 1049.84 49.356C1050.4 48.78 1050.68 47.94 1050.68 46.836C1050.68 46.004 1050.53 45.348 1050.22 44.868C1049.92 44.372 1049.53 44.02 1049.05 43.812C1048.57 43.588 1048.07 43.476 1047.56 43.476C1046.87 43.476 1046.3 43.596 1045.83 43.836C1045.38 44.076 1045.02 44.404 1044.75 44.82H1042.16V35.7H1052.6V38.196H1044.99V42.108C1045.36 41.756 1045.79 41.476 1046.29 41.268C1046.78 41.044 1047.41 40.932 1048.16 40.932C1049.25 40.932 1050.19 41.156 1050.99 41.604C1051.81 42.052 1052.44 42.716 1052.89 43.596C1053.34 44.46 1053.56 45.532 1053.56 46.812C1053.56 48.028 1053.3 49.084 1052.79 49.98C1052.3 50.86 1051.6 51.548 1050.7 52.044C1049.81 52.524 1048.76 52.764 1047.56 52.764Z" fill="#F1F1F1"/>
<defs>
<filter id="filter0_d_595_370" x="291.1" y="0.1" width="87.8" height="87.8" filterUnits="userSpaceOnUse" color-interpolation-filters="sRGB">
<feFlood flood-opacity="0" result="BackgroundImageFix"/>
<feColorMatrix in="SourceAlpha" type="matrix" values="0 0 0 0 0 0 0 0 0 0 0 0 0 0 0 0 0 0 127 0" result="hardAlpha"/>
<feOffset dy="1"/>
<feGaussianBlur stdDeviation="5.7"/>
<feComposite in2="hardAlpha" operator="out"/>
<feColorMatrix type="matrix" values="0 0 0 0 0 0 0 0 0 0 0 0 0 0 0 0 0 0 0.21 0"/>
<feBlend mode="normal" in2="BackgroundImageFix" result="effect1_dropShadow_595_370"/>
<feBlend mode="normal" in="SourceGraphic" in2="effect1_dropShadow_595_370" result="shape"/>
</filter>
<filter id="filter1_d_595_370" x="526.1" y="0.1" width="87.8" height="87.8" filterUnits="userSpaceOnUse" color-interpolation-filters="sRGB">
<feFlood flood-opacity="0" result="BackgroundImageFix"/>
<feColorMatrix in="SourceAlpha" type="matrix" values="0 0 0 0 0 0 0 0 0 0 0 0 0 0 0 0 0 0 127 0" result="hardAlpha"/>
<feOffset dy="1"/>
<feGaussianBlur stdDeviation="5.7"/>
<feComposite in2="hardAlpha" operator="out"/>
<feColorMatrix type="matrix" values="0 0 0 0 0 0 0 0 0 0 0 0 0 0 0 0 0 0 0.21 0"/>
<feBlend mode="normal" in2="BackgroundImageFix" result="effect1_dropShadow_595_370"/>
<feBlend mode="normal" in="SourceGraphic" in2="effect1_dropShadow_595_370" result="shape"/>
</filter>
<filter id="filter2_d_595_370" x="761.1" y="0.1" width="87.8" height="87.8" filterUnits="userSpaceOnUse" color-interpolation-filters="sRGB">
<feFlood flood-opacity="0" result="BackgroundImageFix"/>
<feColorMatrix in="SourceAlpha" type="matrix" values="0 0 0 0 0 0 0 0 0 0 0 0 0 0 0 0 0 0 127 0" result="hardAlpha"/>
<feOffset dy="1"/>
<feGaussianBlur stdDeviation="5.7"/>
<feComposite in2="hardAlpha" operator="out"/>
<feColorMatrix type="matrix" values="0 0 0 0 0 0 0 0 0 0 0 0 0 0 0 0 0 0 0.21 0"/>
<feBlend mode="normal" in2="BackgroundImageFix" result="effect1_dropShadow_595_370"/>
<feBlend mode="normal" in="SourceGraphic" in2="effect1_dropShadow_595_370" result="shape"/>
</filter>
<filter id="filter3_d_595_370" x="996.1" y="0.1" width="87.8" height="87.8" filterUnits="userSpaceOnUse" color-interpolation-filters="sRGB">
<feFlood flood-opacity="0" result="BackgroundImageFix"/>
<feColorMatrix in="SourceAlpha" type="matrix" values="0 0 0 0 0 0 0 0 0 0 0 0 0 0 0 0 0 0 127 0" result="hardAlpha"/>
<feOffset dy="1"/>
<feGaussianBlur stdDeviation="5.7"/>
<feComposite in2="hardAlpha" operator="out"/>
<feColorMatrix type="matrix" values="0 0 0 0 0 0 0 0 0 0 0 0 0 0 0 0 0 0 0.21 0"/>
<feBlend mode="normal" in2="BackgroundImageFix" result="effect1_dropShadow_595_370"/>
<feBlend mode="normal" in="SourceGraphic" in2="effect1_dropShadow_595_370" result="shape"/>
</filter>
</defs>
</svg>
